<svg width="163" height="47" viewBox="0 0 163 47" fill="none" xmlns="http://www.w3.org/2000/svg">
<path d="M45.4922 8.5625H49.1445L58.4609 31.7461L67.7578 8.5625H71.4297L59.8672 37H57.0156L45.4922 8.5625ZM44.3008 8.5625H47.5234L48.0508 25.9062V37H44.3008V8.5625ZM69.3789 8.5625H72.6016V37H68.8516V25.9062L69.3789 8.5625ZM95.4922 8.5625H99.2422V27.8008C99.2422 29.9362 98.7669 31.7135 97.8164 33.1328C96.8659 34.5521 95.6029 35.6198 94.0273 36.3359C92.4648 37.0391 90.7656 37.3906 88.9297 37.3906C87.0026 37.3906 85.2578 37.0391 83.6953 36.3359C82.1458 35.6198 80.9154 34.5521 80.0039 33.1328C79.1055 31.7135 78.6562 29.9362 78.6562 27.8008V8.5625H82.3867V27.8008C82.3867 29.2852 82.6602 30.5091 83.207 31.4727C83.7539 32.4362 84.5156 33.1523 85.4922 33.6211C86.4818 34.0898 87.6276 34.3242 88.9297 34.3242C90.2448 34.3242 91.3906 34.0898 92.3672 33.6211C93.3568 33.1523 94.125 32.4362 94.6719 31.4727C95.2188 30.5091 95.4922 29.2852 95.4922 27.8008V8.5625ZM120.316 29.8125C120.316 29.1484 120.212 28.5625 120.004 28.0547C119.809 27.5339 119.457 27.0651 118.949 26.6484C118.454 26.2318 117.764 25.8346 116.879 25.457C116.007 25.0794 114.9 24.6953 113.559 24.3047C112.152 23.888 110.883 23.4258 109.75 22.918C108.617 22.3971 107.647 21.8047 106.84 21.1406C106.033 20.4766 105.414 19.7148 104.984 18.8555C104.555 17.9961 104.34 17.013 104.34 15.9062C104.34 14.7995 104.568 13.7773 105.023 12.8398C105.479 11.9023 106.13 11.0885 106.977 10.3984C107.836 9.69531 108.858 9.14844 110.043 8.75781C111.228 8.36719 112.549 8.17188 114.008 8.17188C116.143 8.17188 117.953 8.58203 119.438 9.40234C120.935 10.2096 122.074 11.2708 122.855 12.5859C123.637 13.888 124.027 15.2812 124.027 16.7656H120.277C120.277 15.6979 120.049 14.7539 119.594 13.9336C119.138 13.1003 118.448 12.4492 117.523 11.9805C116.599 11.4987 115.427 11.2578 114.008 11.2578C112.667 11.2578 111.56 11.4596 110.688 11.8633C109.815 12.2669 109.164 12.8138 108.734 13.5039C108.318 14.194 108.109 14.9818 108.109 15.8672C108.109 16.4661 108.233 17.013 108.48 17.5078C108.741 17.9896 109.138 18.4388 109.672 18.8555C110.219 19.2721 110.909 19.6562 111.742 20.0078C112.589 20.3594 113.598 20.6979 114.77 21.0234C116.384 21.4792 117.777 21.987 118.949 22.5469C120.121 23.1068 121.085 23.7383 121.84 24.4414C122.608 25.1315 123.174 25.9193 123.539 26.8047C123.917 27.6771 124.105 28.6667 124.105 29.7734C124.105 30.9323 123.871 31.9805 123.402 32.918C122.934 33.8555 122.263 34.6562 121.391 35.3203C120.518 35.9844 119.47 36.4987 118.246 36.8633C117.035 37.2148 115.681 37.3906 114.184 37.3906C112.868 37.3906 111.573 37.2083 110.297 36.8438C109.034 36.4792 107.882 35.9323 106.84 35.2031C105.811 34.474 104.984 33.5755 104.359 32.5078C103.747 31.4271 103.441 30.1771 103.441 28.7578H107.191C107.191 29.7344 107.38 30.5742 107.758 31.2773C108.135 31.9674 108.65 32.5404 109.301 32.9961C109.965 33.4518 110.714 33.7904 111.547 34.0117C112.393 34.2201 113.272 34.3242 114.184 34.3242C115.499 34.3242 116.612 34.1419 117.523 33.7773C118.435 33.4128 119.125 32.8919 119.594 32.2148C120.076 31.5378 120.316 30.737 120.316 29.8125ZM132.953 8.5625V37H129.184V8.5625H132.953ZM156.977 27.957H160.727C160.531 29.7539 160.017 31.362 159.184 32.7812C158.35 34.2005 157.172 35.3268 155.648 36.1602C154.125 36.9805 152.224 37.3906 149.945 37.3906C148.279 37.3906 146.762 37.0781 145.395 36.4531C144.04 35.8281 142.875 34.9427 141.898 33.7969C140.922 32.638 140.167 31.2513 139.633 29.6367C139.112 28.0091 138.852 26.1992 138.852 24.207V21.375C138.852 19.3828 139.112 17.5794 139.633 15.9648C140.167 14.3372 140.928 12.944 141.918 11.7852C142.921 10.6263 144.125 9.73438 145.531 9.10938C146.938 8.48438 148.52 8.17188 150.277 8.17188C152.426 8.17188 154.242 8.57552 155.727 9.38281C157.211 10.1901 158.363 11.3099 159.184 12.7422C160.017 14.1615 160.531 15.8086 160.727 17.6836H156.977C156.794 16.3555 156.456 15.2161 155.961 14.2656C155.466 13.3021 154.763 12.5599 153.852 12.0391C152.94 11.5182 151.749 11.2578 150.277 11.2578C149.014 11.2578 147.901 11.4987 146.938 11.9805C145.987 12.4622 145.186 13.1458 144.535 14.0312C143.897 14.9167 143.415 15.9779 143.09 17.2148C142.764 18.4518 142.602 19.8255 142.602 21.3359V24.207C142.602 25.6003 142.745 26.9089 143.031 28.1328C143.331 29.3568 143.78 30.431 144.379 31.3555C144.978 32.2799 145.74 33.0091 146.664 33.543C147.589 34.0638 148.682 34.3242 149.945 34.3242C151.547 34.3242 152.823 34.0703 153.773 33.5625C154.724 33.0547 155.44 32.3255 155.922 31.375C156.417 30.4245 156.768 29.2852 156.977 27.957Z" fill="white"/>
<circle cx="18.5" cy="23.5" r="18.5" fill="white"/>
<path d="M11.0599 39.0161C13.1285 36.2914 12.7785 35.104 13.2206 31.9971C13.5877 29.4202 15.7566 27.4871 18.3492 27.4255C20.9432 27.3638 23.2008 29.1943 23.6866 31.7512C23.922 32.9859 23.8026 34.2384 24.0407 35.4737C24.2774 36.7153 24.6616 37.8766 25.2094 39.0161H26.2581C25.204 37.0022 24.7175 35.0245 24.7175 32.7497C24.7175 29.2888 21.9216 26.4839 18.4741 26.4839C15.0266 26.4839 12.2306 29.2894 12.2306 32.7497C12.2306 35.2704 11.5197 37.1371 9.84678 39.0161H11.0599Z" fill="black"/>
<path d="M18.4991 7.98387C21.927 7.98387 24.7061 10.762 24.7061 14.1899C24.7061 17.6178 21.927 20.397 18.4991 20.397C15.0714 20.3968 12.293 17.617 12.293 14.1899C12.293 10.7628 15.0713 7.98406 18.4991 7.98387ZM18.5001 8.91454C15.5863 8.91454 13.2247 11.2768 13.2247 14.1899C13.2247 17.103 15.587 19.4663 18.5001 19.4663C21.4137 19.4661 23.7755 17.1036 23.7755 14.1899C23.7755 11.2763 21.4137 8.91475 18.5001 8.91454Z" fill="black"/>
<path d="M34.0161 22.9032H2.98387V24.0968H34.0161V22.9032Z" fill="black"/>
</svg>
