<svg width="37" height="37" viewBox="0 0 37 37" fill="none" xmlns="http://www.w3.org/2000/svg">
<circle cx="18.5" cy="18.5" r="18.5" fill="black"/>
<path d="M11.0599 34.0161C13.1285 31.2914 12.7785 30.104 13.2206 26.9971C13.5877 24.4202 15.7566 22.4871 18.3492 22.4255C20.9432 22.3638 23.2008 24.1943 23.6866 26.7512C23.922 27.9859 23.8026 29.2384 24.0407 30.4737C24.2774 31.7152 24.6616 32.8766 25.2094 34.0161H26.2581C25.204 32.0022 24.7175 30.0245 24.7175 27.7497C24.7175 24.2888 21.9216 21.4839 18.4741 21.4839C15.0266 21.4839 12.2306 24.2894 12.2306 27.7497C12.2306 30.2704 11.5197 32.1371 9.84678 34.0161H11.0599Z" fill="white"/>
<path d="M18.4991 2.98387C21.927 2.98387 24.7061 5.76202 24.7061 9.18993C24.7061 12.6178 21.927 15.397 18.4991 15.397C15.0714 15.3968 12.293 12.617 12.293 9.18993C12.293 5.76281 15.0713 2.98406 18.4991 2.98387ZM18.5001 3.91454C15.5863 3.91454 13.2247 6.27682 13.2247 9.18993C13.2247 12.103 15.587 14.4663 18.5001 14.4663C21.4137 14.4661 23.7755 12.1036 23.7755 9.18993C23.7755 6.27627 21.4137 3.91475 18.5001 3.91454Z" fill="white"/>
<path d="M34.0161 17.9032H2.98387V19.0968H34.0161V17.9032Z" fill="white"/>
</svg>
