<svg width="174" height="47" viewBox="0 0 174 47" fill="none" xmlns="http://www.w3.org/2000/svg">
<path d="M44.3008 8.5625H53.7148C55.8503 8.5625 57.6536 8.88802 59.125 9.53906C60.6094 10.1901 61.7357 11.1536 62.5039 12.4297C63.2852 13.6927 63.6758 15.2487 63.6758 17.0977C63.6758 18.3997 63.4089 19.5911 62.875 20.6719C62.3542 21.7396 61.599 22.651 60.6094 23.4062C59.6328 24.1484 58.4609 24.7018 57.0938 25.0664L56.0391 25.4766H47.1914L47.1523 22.4102H53.832C55.1862 22.4102 56.3125 22.1758 57.2109 21.707C58.1094 21.2253 58.7865 20.5807 59.2422 19.7734C59.6979 18.9661 59.9258 18.0742 59.9258 17.0977C59.9258 16.0039 59.7109 15.0469 59.2812 14.2266C58.8516 13.4062 58.1745 12.7747 57.25 12.332C56.3385 11.8763 55.1602 11.6484 53.7148 11.6484H48.0703V37H44.3008V8.5625ZM60.9219 37L54.0078 24.1094L57.9336 24.0898L64.9453 36.7656V37H60.9219ZM87.0156 33.9336V37H71.957V33.9336H87.0156ZM72.7188 8.5625V37H68.9492V8.5625H72.7188ZM85.0234 20.7891V23.8555H71.957V20.7891H85.0234ZM86.8203 8.5625V11.6484H71.957V8.5625H86.8203ZM108.852 27.957H112.602C112.406 29.7539 111.892 31.362 111.059 32.7812C110.225 34.2005 109.047 35.3268 107.523 36.1602C106 36.9805 104.099 37.3906 101.82 37.3906C100.154 37.3906 98.6367 37.0781 97.2695 36.4531C95.9154 35.8281 94.75 34.9427 93.7734 33.7969C92.7969 32.638 92.0417 31.2513 91.5078 29.6367C90.987 28.0091 90.7266 26.1992 90.7266 24.207V21.375C90.7266 19.3828 90.987 17.5794 91.5078 15.9648C92.0417 14.3372 92.8034 12.944 93.793 11.7852C94.7956 10.6263 96 9.73438 97.4062 9.10938C98.8125 8.48438 100.395 8.17188 102.152 8.17188C104.301 8.17188 106.117 8.57552 107.602 9.38281C109.086 10.1901 110.238 11.3099 111.059 12.7422C111.892 14.1615 112.406 15.8086 112.602 17.6836H108.852C108.669 16.3555 108.331 15.2161 107.836 14.2656C107.341 13.3021 106.638 12.5599 105.727 12.0391C104.815 11.5182 103.624 11.2578 102.152 11.2578C100.889 11.2578 99.776 11.4987 98.8125 11.9805C97.862 12.4622 97.0612 13.1458 96.4102 14.0312C95.7721 14.9167 95.2904 15.9779 94.9648 17.2148C94.6393 18.4518 94.4766 19.8255 94.4766 21.3359V24.207C94.4766 25.6003 94.6198 26.9089 94.9062 28.1328C95.2057 29.3568 95.6549 30.431 96.2539 31.3555C96.8529 32.2799 97.6146 33.0091 98.5391 33.543C99.4635 34.0638 100.557 34.3242 101.82 34.3242C103.422 34.3242 104.698 34.0703 105.648 33.5625C106.599 33.0547 107.315 32.3255 107.797 31.375C108.292 30.4245 108.643 29.2852 108.852 27.957ZM121.781 8.5625V37H118.012V8.5625H121.781ZM139.125 25.8477H131.527V22.7812H139.125C140.596 22.7812 141.788 22.5469 142.699 22.0781C143.611 21.6094 144.275 20.9583 144.691 20.125C145.121 19.2917 145.336 18.3411 145.336 17.2734C145.336 16.2969 145.121 15.3789 144.691 14.5195C144.275 13.6602 143.611 12.9701 142.699 12.4492C141.788 11.9154 140.596 11.6484 139.125 11.6484H132.406V37H128.637V8.5625H139.125C141.273 8.5625 143.09 8.93359 144.574 9.67578C146.059 10.418 147.185 11.4466 147.953 12.7617C148.721 14.0638 149.105 15.5547 149.105 17.2344C149.105 19.0573 148.721 20.6133 147.953 21.9023C147.185 23.1914 146.059 24.1745 144.574 24.8516C143.09 25.5156 141.273 25.8477 139.125 25.8477ZM171.938 33.9336V37H156.879V33.9336H171.938ZM157.641 8.5625V37H153.871V8.5625H157.641ZM169.945 20.7891V23.8555H156.879V20.7891H169.945ZM171.742 8.5625V11.6484H156.879V8.5625H171.742Z" fill="white"/>
<circle cx="18.5" cy="23.5" r="18.5" fill="white"/>
<path d="M11.0599 39.0161C13.1285 36.2914 12.7785 35.104 13.2206 31.9971C13.5877 29.4202 15.7566 27.4871 18.3492 27.4255C20.9432 27.3638 23.2008 29.1943 23.6866 31.7512C23.922 32.9859 23.8026 34.2384 24.0407 35.4737C24.2774 36.7153 24.6616 37.8766 25.2094 39.0161H26.2581C25.204 37.0022 24.7175 35.0245 24.7175 32.7497C24.7175 29.2888 21.9216 26.4839 18.4741 26.4839C15.0266 26.4839 12.2306 29.2894 12.2306 32.7497C12.2306 35.2704 11.5197 37.1371 9.84678 39.0161H11.0599Z" fill="black"/>
<path d="M18.4991 7.98387C21.927 7.98387 24.7061 10.762 24.7061 14.1899C24.7061 17.6178 21.927 20.397 18.4991 20.397C15.0714 20.3968 12.293 17.617 12.293 14.1899C12.293 10.7628 15.0713 7.98406 18.4991 7.98387ZM18.5001 8.91454C15.5863 8.91454 13.2247 11.2768 13.2247 14.1899C13.2247 17.103 15.587 19.4663 18.5001 19.4663C21.4137 19.4661 23.7755 17.1036 23.7755 14.1899C23.7755 11.2763 21.4137 8.91475 18.5001 8.91454Z" fill="black"/>
<path d="M34.0161 22.9032H2.98387V24.0968H34.0161V22.9032Z" fill="black"/>
</svg>
