<svg width="147" height="47" viewBox="0 0 147 47" fill="none" xmlns="http://www.w3.org/2000/svg">
<path d="M45.6094 8.5625L52.9922 22.8398L60.3945 8.5625H64.6719L54.8672 26.375V37H51.0977V26.375L41.293 8.5625H45.6094ZM72.3672 8.5625V37H68.5977V8.5625H72.3672ZM97.2891 33.9336V37H82.2305V33.9336H97.2891ZM82.9922 8.5625V37H79.2227V8.5625H82.9922ZM95.2969 20.7891V23.8555H82.2305V20.7891H95.2969ZM97.0938 8.5625V11.6484H82.2305V8.5625H97.0938ZM119.203 33.9336V37H104.984V33.9336H119.203ZM105.727 8.5625V37H101.957V8.5625H105.727ZM131.215 37H125.277L125.316 33.9336H131.215C133.246 33.9336 134.939 33.5104 136.293 32.6641C137.647 31.8047 138.663 30.6068 139.34 29.0703C140.03 27.5208 140.375 25.7109 140.375 23.6406V21.9023C140.375 20.2747 140.18 18.8294 139.789 17.5664C139.398 16.2904 138.826 15.2161 138.07 14.3438C137.315 13.4583 136.391 12.7878 135.297 12.332C134.216 11.8763 132.973 11.6484 131.566 11.6484H125.16V8.5625H131.566C133.428 8.5625 135.128 8.875 136.664 9.5C138.201 10.112 139.522 11.0039 140.629 12.1758C141.749 13.3346 142.608 14.7409 143.207 16.3945C143.806 18.0352 144.105 19.8841 144.105 21.9414V23.6406C144.105 25.6979 143.806 27.5534 143.207 29.207C142.608 30.8477 141.742 32.2474 140.609 33.4062C139.49 34.5651 138.135 35.457 136.547 36.082C134.971 36.694 133.194 37 131.215 37ZM127.289 8.5625V37H123.52V8.5625H127.289Z" fill="white"/>
<circle cx="18.5" cy="23.5" r="18.5" fill="white"/>
<path d="M11.0599 39.0161C13.1285 36.2914 12.7785 35.104 13.2206 31.9971C13.5877 29.4202 15.7566 27.4871 18.3492 27.4255C20.9432 27.3638 23.2008 29.1943 23.6866 31.7512C23.922 32.9859 23.8026 34.2384 24.0407 35.4737C24.2774 36.7153 24.6616 37.8766 25.2094 39.0161H26.2581C25.204 37.0022 24.7175 35.0245 24.7175 32.7497C24.7175 29.2888 21.9216 26.4839 18.4741 26.4839C15.0266 26.4839 12.2306 29.2894 12.2306 32.7497C12.2306 35.2704 11.5197 37.1371 9.84678 39.0161H11.0599Z" fill="black"/>
<path d="M18.4991 7.98387C21.927 7.98387 24.7061 10.762 24.7061 14.1899C24.7061 17.6178 21.927 20.397 18.4991 20.397C15.0714 20.3968 12.293 17.617 12.293 14.1899C12.293 10.7628 15.0713 7.98406 18.4991 7.98387ZM18.5001 8.91454C15.5863 8.91454 13.2247 11.2768 13.2247 14.1899C13.2247 17.103 15.587 19.4663 18.5001 19.4663C21.4137 19.4661 23.7755 17.1036 23.7755 14.1899C23.7755 11.2763 21.4137 8.91475 18.5001 8.91454Z" fill="black"/>
<path d="M34.0161 22.9032H2.98387V24.0968H34.0161V22.9032Z" fill="black"/>
</svg>
